<svg xmlns="http://www.w3.org/2000/svg" baseProfile="tiny" version="1.2" viewBox="0 0 512 512"><path fill="#f06" d="M479.93 255.99A223.93 223.93 0 0 1 256 479.92 223.93 223.93 0 0 1 32.07 255.99 223.93 223.93 0 0 1 256 32.06a223.93 223.93 0 0 1 223.93 223.93Z"/><g fill="#fff"><path d="M193.44 211.37q1.01.06.29-.66l-28-27.95a.81.79-23.8 0 0-.64-.24q-8.65.62-14.87-5.19c-8.89-8.3-8.22-22.65 1.92-29.77 13.33-9.36 31.42 1.08 30.36 17.23q-.04.62.4 1.06l27.85 27.89q.69.69.61-.28c-.48-6.05.25-11.66 5.79-15a11.94 11.94 0 0 1 17.3 5.77q1.19 3.03 1.05 9.15-.26 12.15.01 24.31.17 7.36-1.15 10.46c-2.53 5.93-7.71 7.37-13.92 7.32q-17.42-.13-31.46-.07c-12.94.06-16.93-17.02-5.51-22.83 2.96-1.51 6.75-1.37 9.97-1.2Zm107.27-17.57a.2.2 0 0 0 .34.14l28.12-28.08q.37-.37.33-.9c-.74-9.46 5.32-18 14.47-20.33a19.2 19.2 0 0 1 22.44 11.03c5.87 13.51-5.01 27.79-19.32 26.85q-.56-.04-.97.36l-27.98 27.97a.34.34 0 0 0 .28.58c6.42-.68 12.64.39 15.65 6.8q3 6.41-1.14 12.23-3.6 5.04-10.99 4.98-11.41-.1-28.41.07-6.83.07-10.08-1.39-6.79-3.05-6.81-11.88-.03-16.69.03-33.4c.05-13.51 18.63-16.79 23.28-4.15 1.05 2.83.82 6.14.76 9.12Z"/><path d="M286.44 255.99a30.46 30.46 0 0 1-30.46 30.46 30.46 30.46 0 0 1-30.46-30.46 30.46 30.46 0 0 1 30.46-30.46 30.46 30.46 0 0 1 30.46 30.46Zm-92.8 44.7q-2.87.17-5.79-.04c-9.91-.75-14.57-12.4-8.25-19.8q3.73-4.35 10.23-4.29 14.9.15 28.87-.05 6.78-.1 9.64 1.24c5.77 2.69 7.3 7.89 7.2 13.81q-.23 13.24-.04 28.73.06 4.6-.96 7.36c-2.75 7.45-12.04 9.87-18.38 5.22-5.1-3.74-4.8-8.47-4.86-14.53q0-.61-.43-.18l-27.95 27.97q-.36.36-.35.87.26 14.36-12.61 19.71-7.04 2.93-14.56-.44c-11.27-5.05-15.27-19.66-7.09-29.56q6.48-7.84 16.53-7.2.61.03 1.05-.4l27.95-27.96a.27.27 0 0 0-.2-.46Zm107.04 17.79c.45 6.08-.2 11.51-5.69 14.99-8.52 5.4-18.41-1.35-18.38-10.79q.06-15.91 0-32.86-.03-8.61 6.78-11.91 3.18-1.55 10.49-1.4 16.6.32 29.31.19c12.7-.13 16.87 17.28 5.14 22.88-3.04 1.46-6.61 1.22-9.88 1.16q-.8-.01-.24.55l27.82 27.88q.39.39.93.34c19.01-1.41 28.64 22.1 13.71 34.27-13.28 10.83-32.37-.2-31.16-16.86a1.09 1.07-65.5 0 0-.31-.85l-27.91-27.87q-.68-.67-.61.28Z"/></g><path fill="#f06" d="M262.56 255.98a6.58 6.58 0 0 1-6.58 6.58 6.58 6.58 0 0 1-6.58-6.58 6.58 6.58 0 0 1 6.58-6.58 6.58 6.58 0 0 1 6.58 6.58Z"/></svg>